<svg xmlns="http://www.svg.org/2000/svg" viewBox="0 0 100 100">
  <!-- Accent Red Background -->
  <circle cx="50" cy="50" r="48" fill="#f34b5c" />
  
  <!-- Brutalist/Modern White 'm' -->
  <path d="M72 38C72 34.6863 69.3137 32 66 32C62.6863 32 60 34.6863 60 38V40C58.3374 34.821 54.5126 32 49 32C46.3312 32 43.8329 32.8804 41.836 34.3644C40.6725 32.8942 38.6436 32 36 32C32.6863 32 30 34.6863 30 38V66C30 69.3137 32.6863 72 36 72C39.3137 72 42 69.3137 42 66V46C42 44.8954 42.8954 44 44 44C45.1046 44 46 44.8954 46 46V66C46 69.3137 48.6863 72 52 72C55.3137 72 58 69.3137 58 66V46C58 44.8954 58.8954 44 60 44C61.1046 44 62 44.8954 62 46V66C62 69.3137 64.6863 72 68 72C71.3137 72 74 69.3137 74 66V38H72Z" fill="#ffffff" />
</svg>